<?xml version="1.0" encoding="UTF-8" standalone="no"?>
<svg width="310px" height="572px" viewBox="0 0 310 572" version="1.1" xmlns="http://www.w3.org/2000/svg" xmlns:xlink="http://www.w3.org/1999/xlink" xmlns:sketch="http://www.bohemiancoding.com/sketch/ns">
    <!-- Generator: Sketch 3.4.1 (15681) - http://www.bohemiancoding.com/sketch -->
    <title>phone</title>
    <desc>Created with Sketch.</desc>
    <defs></defs>
    <g id="Page-1" stroke="none" stroke-width="1" fill="none" fill-rule="evenodd" sketch:type="MSPage">
        <g id="phone" sketch:type="MSLayerGroup">
            <g id="Phone" sketch:type="MSShapeGroup">
                <g id="Finals_v2">
                    <g id="snapchat.com/download-(Desktop)-Copy">
                        <g id="Oval-1-+-Phone-+-Phone">
                            <g id="Oval-1-+-Phone">
                                <ellipse id="Oval-1" fill="#ffce40" cx="155" cy="560.980736" rx="155" ry="11.0192644"></ellipse>
                                <g id="Phone" transform="translate(30.087379, 0.000000)">
                                    
                                    <g id="iPhone-Silhouette-+-Screen" transform="translate(0.000000, 35.061296)">
                                        <g id="iPhone-Silhouette" transform="translate(0.000000, -0.000000)">
                                            <path d="M250.590764,106.545574 L250.590764,35.1673615 C250.590764,15.7815971 234.821716,0.0669944733 215.368786,0.0669944733 L35.9199744,0.0669944733 C16.4677237,0.0669944733 0.69799615,15.7815971 0.69799615,35.1673615 L0.69799615,58.8245311 L0.69799615,81.2054222 L0.69799615,106.536777 L0.69799615,146.16976 L0.69799615,155.452893 L0.69799615,195.085876 L0.69799615,489.352671 C0.69799615,508.737759 16.4677237,524.451685 35.9199744,524.451685 L215.368786,524.451685 C234.821716,524.451685 250.590764,508.737759 250.590764,489.352671 L250.590764,146.16976 L250.590764,106.545574 Z M242.391636,463.997688 C242.391636,465.135806 241.47491,466.066994 240.354467,466.066994 L10.8333916,466.066994 C9.7129485,466.066994 8.7962223,465.135806 8.7962223,463.997688 L8.7962223,50.1363014 C8.7962223,48.9981826 9.7129485,48.0669945 10.8333916,48.0669945 L240.354467,48.0669945 C241.47491,48.0669945 242.391636,48.9981826 242.391636,50.1363014 L242.391636,463.997688 L242.391636,463.997688 Z" id="Fill-1" fill="#231F1F"></path>
                                            
                                            <path d="M104.58005,494.72035 C104.58005,483.467985 113.73373,474.345232 125.02576,474.345232 C136.31711,474.345232 145.472149,483.467985 145.472149,494.72035 C145.472149,505.972714 136.31711,515.09682 125.02576,515.09682 C113.73373,515.09682 104.58005,505.972714 104.58005,494.72035 L104.58005,494.72035 L104.58005,494.72035 Z" id="Fill-8" fill="#414042"></path>
                                            <path d="M104.58005,494.72035 C104.58005,483.467985 113.73373,474.345232 125.02576,474.345232 C136.31711,474.345232 145.472149,483.467985 145.472149,494.72035 C145.472149,505.972714 136.31711,515.09682 125.02576,515.09682 C113.73373,515.09682 104.58005,505.972714 104.58005,494.72035 L104.58005,494.72035 L104.58005,494.72035 Z" id="Stroke-9" stroke="#58595B" stroke-width="2"></path>
                                        </g>
                                    </g>
                                    <path d="M84.7358748,31.9613951 C84.7358748,33.7745233 83.2648408,35.2446272 81.4493207,35.2446272 L79.1036932,35.2446272 C77.2887305,35.2446272 75.8171391,33.7745233 75.8171391,31.9613951 C75.8171391,30.148267 77.2887305,28.6781631 79.1036932,28.6781631 L81.4493207,28.6781631 C83.2648408,28.6781631 84.7358748,30.148267 84.7358748,31.9613951" id="Ghost-Hand" fill="#FFFFFF"></path>
                                </g>
                            </g>
                        </g>
                    </g>
                </g>
            </g>
        </g>
    </g>
</svg>